<svg width="168" height="25" viewBox="0 0 168 25" fill="none" xmlns="http://www.w3.org/2000/svg">
<path d="M18.9961 15.9346C16.7941 19.8102 12.8598 24.0527 6.65012 24.0527C2.15799 24.0527 0 21.8507 0 18.3275C0 13.9968 3.30304 6.43652 10.1146 6.43652C14.7095 6.43652 16.8382 9.66616 14.093 15.1272H8.95491C10.7899 11.3397 10.922 10.5029 9.89444 10.5029C7.11988 10.5029 4.85914 16.2869 4.85914 18.4596C4.85914 20.6322 6.98776 20.8818 8.16218 20.8818C11.4212 20.8818 14.9151 18.7091 17.2052 14.6427C17.8805 14.7015 18.7613 15.318 19.0108 15.9346H18.9961Z" fill="black"/>
<path d="M37.9043 15.9348C35.2913 20.4856 32.2231 24.0529 28.3035 24.0529C24.9417 24.0529 23.6499 21.3958 25.9106 15.7439L26.3951 14.5549C27.0117 12.94 27.5255 11.7803 27.5255 11.2959C27.5255 10.8408 27.1438 10.5912 26.6153 10.5912C25.8372 10.5912 24.3545 11.3399 22.9893 12.8813L18.6293 23.6419H13.4912L22.8572 0.476562H27.9952L24.7362 8.59471C24.7362 8.59471 27.1585 6.46608 30.0358 6.46608C32.0763 6.46608 33.1333 7.56709 33.1333 9.28467C33.1333 10.1508 32.8397 11.2518 32.1644 12.94L30.5789 16.7862C29.0962 20.5003 29.7128 20.926 30.256 20.926C31.5478 20.926 33.7792 18.6653 36.0693 14.687C36.7446 14.7457 37.6254 15.3623 37.875 15.9788L37.9043 15.9348Z" fill="black"/>
<path d="M53.8317 6.84753L49.824 16.742C48.3707 20.3973 48.9139 20.8818 49.5011 20.8818C50.7929 20.8818 52.995 18.621 55.3144 14.6427C55.9897 14.7014 56.8705 15.318 57.1201 15.9346C54.5951 20.3239 51.4682 24.0527 47.5193 24.0527C44.1575 24.0527 43.7318 21.3662 43.7318 21.3662C43.7318 21.3662 41.5004 24.0527 38.6524 24.0527C36.2302 24.0527 34.9971 22.1443 34.9971 19.8248C34.9971 16.3603 37.7423 6.45117 43.9226 6.45117C47.0642 6.45117 47.7688 9.06424 47.7688 9.06424M44.3043 17.6228L46.4036 12.4554C46.4036 12.4554 46.3742 10.6497 44.9502 10.6497C42.3959 10.6497 40.003 16.6979 40.003 18.7678C40.003 19.6046 40.3847 19.9569 41.0306 19.9569C42.8069 19.9569 44.2896 17.6228 44.2896 17.6228H44.3043Z" fill="black"/>
<path d="M75.1926 15.9348C73.2548 19.2966 69.0856 24.0529 64.9752 24.0529C61.9657 24.0529 59.7343 21.4986 60.0279 17.8872C60.1601 16.2724 60.6445 15.9201 61.3785 15.9201C62.3181 15.9201 64.065 15.8907 65.166 13.0134C65.2981 12.6611 65.5477 11.9418 65.5477 11.3986C65.5477 10.8554 65.2835 10.5912 64.7696 10.5912C63.9035 10.5912 62.5676 11.2959 61.1143 12.8813L56.7543 23.6419H51.6162L60.9822 0.476562H66.1202L62.8612 8.59471C62.8612 8.59471 65.3128 6.46608 68.1314 6.46608C70.2013 6.46608 71.273 7.62581 71.273 9.18191C71.273 10.8554 70.0105 13.4538 69.8196 13.8355C68.6893 16.0669 66.8102 17.5496 64.8137 17.7111C64.755 19.0323 64.8137 21.0435 66.4872 20.9114C68.2929 20.8086 71.1996 18.4598 73.3722 14.6723C74.0475 14.731 74.9283 15.3476 75.1779 15.9641L75.1926 15.9348Z" fill="black"/>
<path d="M91.1345 6.84753L87.1268 16.742C85.6734 20.3973 86.2166 20.8818 86.8038 20.8818C88.0957 20.8818 90.2977 18.621 92.6172 14.6427C93.2925 14.7014 94.1733 15.318 94.4228 15.9346C91.8978 20.3239 88.771 24.0527 84.822 24.0527C81.4602 24.0527 81.0345 21.3662 81.0345 21.3662C81.0345 21.3662 78.8031 24.0527 75.9552 24.0527C73.5329 24.0527 72.2998 22.1443 72.2998 19.8248C72.2998 16.3603 75.045 6.45117 81.2254 6.45117C84.3669 6.45117 85.0716 9.06424 85.0716 9.06424M81.607 17.6228L83.7063 12.4554C83.7063 12.4554 83.6769 10.6497 82.253 10.6497C79.6986 10.6497 77.3057 16.6979 77.3057 18.7678C77.3057 19.6046 77.6874 19.9569 78.3334 19.9569C80.1097 19.9569 81.5924 17.6228 81.5924 17.6228H81.607Z" fill="black"/>
<path d="M100.178 8.56514C100.339 8.40366 102.732 6.43652 105.477 6.43652C107.518 6.43652 108.575 7.53753 108.575 9.25511C108.575 10.1212 108.281 11.2223 107.606 12.9105L106.02 16.7567C104.538 20.4708 105.154 20.8965 105.697 20.8965C106.989 20.8965 109.221 18.6357 111.511 14.6574C112.186 14.7161 113.067 15.3327 113.316 15.9493C110.733 20.4414 107.635 24.0674 103.745 24.0674C100.383 24.0674 98.9886 21.4837 101.293 15.7584L101.778 14.5693C102.394 13.0132 102.908 11.7948 102.908 11.3103C102.908 10.8553 102.526 10.6057 102.042 10.6057C101.264 10.6057 99.7813 11.3544 98.416 12.8958L94.056 23.6564H88.918L95.7002 6.87692" fill="black"/>
<path d="M129.875 15.9346C127.673 19.8102 123.739 24.0527 117.529 24.0527C113.037 24.0527 110.879 21.8507 110.879 18.3275C110.879 13.9968 114.182 6.43652 120.994 6.43652C125.588 6.43652 127.717 9.66616 124.972 15.1272H119.834C121.669 11.3397 121.801 10.5029 120.773 10.5029C117.999 10.5029 115.738 16.2869 115.738 18.4596C115.738 20.6322 117.867 20.8818 119.041 20.8818C122.3 20.8818 125.794 18.7091 128.084 14.6427C128.759 14.7015 129.64 15.318 129.89 15.9346H129.875Z" fill="black"/>
<path d="M148.769 15.9348C146.156 20.4856 143.087 24.0529 139.168 24.0529C135.806 24.0529 134.514 21.3958 136.775 15.7439L137.259 14.5549C137.876 12.94 138.39 11.7803 138.39 11.2959C138.39 10.8408 138.008 10.5912 137.48 10.5912C136.701 10.5912 135.219 11.3399 133.854 12.8813L129.494 23.6419H124.355L133.721 0.476562H138.859L135.6 8.59471C135.6 8.59471 138.023 6.46608 140.9 6.46608C142.941 6.46608 143.998 7.56709 143.998 9.28467C143.998 10.1508 143.704 11.2518 143.029 12.94L141.443 16.7862C139.96 20.5003 140.577 20.926 141.12 20.926C142.412 20.926 144.643 18.6653 146.934 14.687C147.609 14.7457 148.49 15.3623 148.739 15.9788L148.769 15.9348Z" fill="black"/>
<path d="M164.712 6.84753L160.704 16.742C159.251 20.3973 159.794 20.8818 160.381 20.8818C161.673 20.8818 163.875 18.621 166.194 14.6427C166.87 14.7014 167.75 15.318 168 15.9346C165.475 20.3239 162.348 24.0527 158.399 24.0527C155.037 24.0527 154.612 21.3662 154.612 21.3662C154.612 21.3662 152.38 24.0527 149.532 24.0527C147.11 24.0527 145.877 22.1443 145.877 19.8248C145.877 16.3603 148.622 6.45117 154.802 6.45117C157.944 6.45117 158.649 9.06424 158.649 9.06424M155.184 17.6228L157.283 12.4554C157.283 12.4554 157.254 10.6497 155.83 10.6497C153.276 10.6497 150.883 16.6979 150.883 18.7678C150.883 19.6046 151.265 19.9569 151.911 19.9569C153.687 19.9569 155.169 17.6228 155.169 17.6228H155.184Z" fill="black"/>
</svg>
